<?xml version="1.0" standalone="no"?>
<!DOCTYPE svg PUBLIC "-//W3C//DTD SVG 20010904//EN"
 "http://www.w3.org/TR/2001/REC-SVG-20010904/DTD/svg10.dtd">
<svg version="1.0" xmlns="http://www.w3.org/2000/svg"
 width="1024.000000pt" height="1024.000000pt" viewBox="0 0 1024.000000 1024.000000"
 preserveAspectRatio="xMidYMid meet">

<g transform="translate(0.000000,1024.000000) scale(0.100000,-0.100000)"
fill="#fff" stroke="none">
<path d="M4700 8444 c-251 -27 -475 -73 -664 -136 -460 -153 -854 -371 -1218
-675 -215 -179 -531 -548 -698 -814 -250 -401 -418 -871 -485 -1359 -22 -158
-30 -521 -16 -699 39 -484 178 -969 392 -1366 76 -140 244 -397 334 -510 554
-694 1354 -1162 2207 -1289 210 -32 332 -39 568 -33 484 12 866 100 1347 311
446 195 884 533 1236 953 192 229 295 388 438 674 224 448 349 992 349 1519 0
714 -215 1384 -637 1987 -107 153 -196 260 -346 412 -224 229 -409 376 -675
540 -444 272 -974 447 -1487 491 -163 13 -493 10 -645 -6z m270 -773 l0 -258
-142 -6 -143 -5 -47 44 c-58 54 -82 64 -158 64 -77 0 -142 -42 -180 -115 -22
-43 -25 -65 -28 -167 l-4 -118 -383 0 c-277 0 -391 -3 -410 -12 -52 -23 -55
-43 -55 -342 l0 -275 -32 -17 c-47 -23 -96 -72 -120 -119 -29 -55 -35 -149
-14 -213 21 -62 85 -137 131 -154 l35 -12 0 -1008 0 -1007 -32 -17 c-156 -78
-196 -289 -82 -423 20 -23 54 -51 75 -62 l39 -19 0 -261 0 -261 34 -34 34 -34
391 0 391 0 0 -95 c0 -70 5 -108 20 -149 58 -154 244 -195 354 -77 l30 31 148
0 148 0 0 -236 0 -235 -87 6 c-610 44 -1178 270 -1675 667 -335 268 -662 695
-828 1081 -149 348 -225 685 -237 1045 l-6 172 236 0 236 0 3 -213 3 -214 38
-57 c27 -41 50 -63 77 -75 l39 -16 3 -448 3 -449 28 -24 c36 -31 67 -30 101 1
l26 24 0 443 0 444 53 34 c37 25 59 49 77 85 l25 50 0 365 0 365 -25 50 c-18
36 -40 60 -77 85 l-53 34 0 417 c0 392 -1 418 -19 440 -25 31 -83 32 -114 1
-22 -23 -22 -23 -25 -447 l-3 -424 -22 -7 c-82 -25 -137 -117 -137 -231 l0
-73 -235 0 -236 0 6 63 c72 690 359 1309 827 1779 155 157 177 176 313 278
475 355 1023 563 1565 593 30 2 70 4 88 5 l32 2 0 -259z m425 238 c594 -60
1235 -368 1694 -813 399 -388 682 -900 810 -1466 28 -125 61 -338 61 -396 l0
-24 -235 0 -235 0 0 73 c0 59 -5 83 -26 126 -25 50 -90 111 -119 111 -21 0
-25 79 -25 470 0 354 -1 379 -19 401 -13 17 -29 23 -56 23 -27 0 -43 -6 -56
-23 -18 -22 -19 -48 -19 -442 l0 -419 -37 -19 c-49 -25 -88 -66 -107 -113 -14
-31 -16 -94 -16 -395 0 -355 0 -358 24 -408 23 -52 71 -100 113 -116 l23 -9 0
-441 c-1 -485 -1 -481 59 -494 35 -7 66 7 82 38 9 16 12 136 11 454 l-1 432
52 35 c30 20 65 55 82 83 l30 48 3 212 3 213 236 0 236 0 -6 -172 c-10 -290
-49 -503 -142 -784 -89 -268 -188 -470 -341 -699 -113 -169 -194 -266 -363
-435 -491 -490 -1096 -781 -1796 -865 -72 -8 -143 -15 -158 -15 l-27 0 0 238
0 237 149 -5 148 -5 27 -32 c59 -70 174 -82 263 -27 36 22 55 44 78 89 27 52
30 70 33 162 l4 103 389 0 389 0 32 29 33 29 2 139 c0 76 2 197 2 269 l1 132
26 6 c14 4 47 28 73 54 85 86 102 203 45 319 -25 52 -100 123 -130 123 -7 0
-15 18 -19 43 -3 23 -5 478 -3 1011 2 774 6 970 16 974 7 2 34 18 60 35 68 47
106 125 106 221 0 96 -36 164 -118 219 l-56 39 0 269 c0 296 -5 330 -55 349
-16 6 -180 10 -411 10 l-384 0 0 93 c0 111 -18 178 -62 231 -40 49 -98 75
-166 76 -62 0 -112 -23 -162 -74 l-35 -37 -137 2 -138 1 0 265 0 264 83 -6
c45 -3 127 -11 182 -16z m-869 -580 c17 -19 19 -41 22 -263 3 -275 0 -289 -59
-294 -68 -6 -69 -2 -69 284 0 241 1 255 20 274 26 26 62 25 86 -1z m1128 6
c24 -25 28 -67 24 -306 -2 -173 -6 -230 -17 -242 -17 -22 -69 -22 -93 0 -17
15 -18 37 -18 267 0 212 2 255 16 274 18 26 65 30 88 7z m-248 -96 c3 -6 3
-85 -1 -175 l-7 -164 -354 0 -354 0 0 175 0 175 354 0 c246 0 357 -3 362 -11z
m-1136 -363 c1 -91 15 -139 55 -192 53 -69 126 -96 204 -75 54 15 104 50 134
97 l22 34 365 0 365 0 23 -40 c34 -60 90 -93 160 -94 149 -1 232 101 232 284
0 32 4 61 9 64 5 3 161 3 347 -1 l339 -6 -5 -234 -5 -233 -52 -25 c-89 -41
-140 -143 -130 -262 8 -98 84 -204 160 -220 l27 -5 0 -384 0 -384 -90 0 c-72
0 -96 4 -122 20 -20 12 -51 20 -77 20 -37 0 -49 -5 -77 -36 -28 -29 -34 -43
-34 -80 0 -37 6 -51 34 -82 30 -32 40 -37 79 -37 31 0 55 7 76 22 26 20 43 23
121 23 l90 0 -2 -307 -3 -308 -125 0 c-117 0 -127 1 -151 23 -59 53 -157 34
-186 -35 -32 -77 26 -173 103 -173 22 1 50 7 64 15 18 10 62 14 163 15 l137 0
0 -164 0 -164 -29 -10 c-41 -14 -108 -78 -134 -126 -33 -63 -31 -183 5 -252
29 -56 75 -99 126 -121 l32 -13 0 -215 0 -215 -344 0 -344 0 -4 103 c-3 90 -7
108 -33 155 -41 76 -101 115 -182 120 -53 4 -68 0 -113 -24 -28 -15 -59 -40
-68 -56 l-16 -28 -368 0 -369 0 -31 36 c-43 49 -97 74 -158 74 -63 0 -106 -17
-149 -61 -50 -50 -64 -91 -71 -209 l-5 -105 -345 0 -345 0 -3 210 -2 210 52
26 c61 29 111 89 130 152 40 136 -22 287 -135 328 -33 12 -35 14 -41 78 -3 36
-6 112 -6 169 l0 102 143 0 c109 -1 147 -4 161 -15 26 -20 96 -19 124 1 69 48
69 162 0 204 -44 27 -88 25 -132 -5 -35 -23 -45 -25 -167 -25 l-129 0 2 303 3
302 89 3 c81 3 92 1 125 -23 62 -42 125 -29 168 34 13 19 23 45 23 58 0 38
-27 87 -59 106 -36 21 -100 22 -127 2 -14 -10 -47 -14 -121 -15 l-103 0 0 374
0 374 56 27 c66 32 107 84 130 163 35 120 -24 260 -130 312 -55 26 -56 29 -56
286 l0 204 258 2 c141 2 299 4 350 4 l92 2 0 -82z m-710 -561 c37 -19 50 -43
50 -93 0 -49 -29 -88 -75 -101 -44 -12 -73 -5 -107 27 -36 33 -44 72 -22 117
28 60 94 81 154 50z m3074 1 c43 -18 66 -51 66 -97 0 -106 -144 -145 -200 -54
-27 44 -25 77 7 115 41 50 73 59 127 36z m-3735 -950 c32 -17 51 -54 51 -101
l0 -35 -100 0 -100 0 0 35 c0 41 22 89 47 104 26 15 70 13 102 -3z m4401 1
c31 -24 50 -62 50 -99 l0 -38 -100 0 -100 0 0 36 c0 67 41 114 100 113 19 0
42 -5 50 -12z m-4360 -367 l0 -70 -90 0 -90 0 0 70 0 70 90 0 90 0 0 -70z
m4408 3 l-3 -68 -92 -3 -93 -3 0 71 0 70 95 0 96 0 -3 -67z m-4408 -272 c0
-64 -6 -79 -41 -96 -55 -29 -108 -15 -134 35 -15 30 -20 91 -8 103 3 4 46 7
95 7 l88 0 0 -49z m4406 4 c2 -75 -33 -115 -101 -115 -53 0 -95 46 -95 104 0
24 3 46 7 50 4 4 48 5 98 4 l90 -3 1 -40z m-3801 -949 c55 -23 85 -114 52
-156 -59 -76 -168 -62 -197 24 -20 63 32 142 98 145 7 1 28 -5 47 -13z m3095
-2 c64 -38 79 -117 31 -164 -49 -50 -105 -52 -158 -6 -38 33 -40 102 -3 141
43 46 84 56 130 29z m-2115 -584 c17 -19 18 -43 18 -287 0 -265 0 -266 -22
-285 -30 -23 -56 -23 -81 2 -19 19 -20 33 -20 280 l0 261 25 24 c29 30 56 32
80 5z m1126 1 l24 -19 0 -266 c0 -295 -1 -299 -66 -299 -59 0 -60 8 -57 306 3
253 4 269 22 283 27 19 49 18 77 -5z m-263 -90 l22 -1 0 -200 0 -200 -360 0
-360 0 0 198 c0 109 3 201 6 205 5 4 481 3 692 -2z"/>
<path d="M4900 7084 c-13 -32 2 -62 34 -70 36 -9 66 12 66 44 0 37 -17 52 -57
52 -27 0 -35 -5 -43 -26z"/>
<path d="M5102 7098 c-7 -7 -12 -24 -12 -38 0 -33 17 -50 51 -50 32 0 61 33
52 59 -13 37 -66 54 -91 29z"/>
<path d="M4921 6399 c-485 -63 -846 -551 -770 -1042 27 -176 102 -323 244
-478 33 -37 74 -91 90 -120 l30 -54 5 -305 5 -305 68 -3 67 -3 0 -79 c0 -92 7
-115 52 -165 42 -49 99 -75 166 -75 l52 0 0 -40 c0 -78 45 -130 112 -130 76 0
112 36 124 124 l6 43 65 6 c81 6 138 42 171 107 17 35 22 61 22 127 l0 83 69
0 69 0 4 298 3 297 26 55 c15 30 60 94 102 141 97 112 131 162 177 262 54 117
75 217 74 362 0 139 -23 239 -84 372 -48 104 -86 158 -174 251 -206 216 -474
310 -775 271z m289 -174 c142 -33 252 -99 367 -218 136 -142 201 -290 211
-478 10 -226 -45 -360 -245 -588 -35 -39 -72 -89 -83 -111 -28 -54 -50 -145
-50 -202 l0 -48 -140 0 -140 0 0 415 0 415 169 0 170 0 20 26 c30 38 28 87 -5
113 -26 21 -37 21 -443 21 -447 -1 -440 0 -460 -53 -13 -33 -1 -69 31 -91 18
-13 53 -16 190 -16 l168 0 0 -415 0 -415 -138 0 -138 0 -12 88 c-15 116 -59
201 -157 312 -160 179 -224 348 -212 558 14 249 153 475 367 603 69 41 156 75
225 89 68 13 236 11 305 -5z m173 -1815 l27 0 0 -80 0 -80 -360 0 -360 0 0 78
c0 43 2 81 4 83 3 3 491 3 689 -1z m-95 -371 c-4 -38 -12 -58 -32 -77 l-26
-27 -184 0 c-179 0 -185 1 -209 23 -17 16 -26 38 -30 70 -3 26 -3 50 0 54 2 5
112 8 245 8 l241 0 -5 -51z"/>
<path d="M4214 3846 c-42 -19 -64 -52 -64 -99 0 -50 23 -93 60 -112 48 -25 78
-19 121 24 34 33 39 45 39 83 0 56 -27 93 -78 108 -45 12 -40 12 -78 -4z"/>
<path d="M5771 3835 c-16 -14 -35 -41 -41 -60 -21 -64 41 -155 105 -155 52 0
115 68 115 125 -1 93 -110 147 -179 90z"/>
<path d="M4912 2918 c-7 -7 -12 -24 -12 -38 0 -14 5 -31 12 -38 7 -7 24 -12
38 -12 14 0 31 5 38 12 7 7 12 24 12 38 0 14 -5 31 -12 38 -7 7 -24 12 -38 12
-14 0 -31 -5 -38 -12z"/>
<path d="M5112 2914 c-27 -18 -28 -45 -4 -67 48 -44 115 15 71 62 -24 25 -37
26 -67 5z"/>
</g>
</svg>
